<svg width="423" height="239" viewBox="0 0 423 239" fill="none" xmlns="http://www.w3.org/2000/svg">
<g clip-path="url(#clip0_1_16853)">
<g opacity="0.3">
<circle cx="212.682" cy="118.872" r="116.06" fill="url(#paint0_linear_1_16853)"/>
<circle cx="212.682" cy="118.872" r="116.06" stroke="url(#paint1_linear_1_16853)" stroke-width="1.43455"/>
<circle cx="212.682" cy="118.872" r="116.06" stroke="url(#paint2_linear_1_16853)" stroke-opacity="0.6" stroke-width="1.43455"/>
</g>
<circle cx="212.215" cy="118.405" r="115.514" fill="url(#paint3_linear_1_16853)" fill-opacity="0.9" stroke="url(#paint4_linear_1_16853)" stroke-width="1.5931"/>
<path opacity="0.5" d="M212.215 161.675C239.155 161.675 263.526 163.715 281.146 167.005C289.961 168.651 297.051 170.603 301.919 172.752C304.356 173.828 306.196 174.937 307.416 176.05C308.638 177.165 309.166 178.217 309.166 179.196C309.166 180.175 308.638 181.227 307.416 182.341C306.196 183.455 304.355 184.563 301.919 185.638C297.051 187.787 289.961 189.739 281.146 191.385C263.526 194.675 239.155 196.715 212.215 196.715C185.275 196.715 160.904 194.675 143.285 191.385C134.47 189.739 127.38 187.787 122.512 185.638C120.075 184.563 118.235 183.455 117.015 182.341C115.793 181.227 115.264 180.175 115.264 179.196C115.264 178.217 115.793 177.165 117.015 176.05C118.235 174.937 120.075 173.828 122.512 172.752C127.38 170.603 134.47 168.651 143.285 167.005C160.904 163.715 185.275 161.675 212.215 161.675Z" fill="url(#paint5_linear_1_16853)" stroke="url(#paint6_linear_1_16853)" stroke-width="1.43455"/>
<path opacity="0.3" d="M212.621 89.5383C251.988 89.5383 287.611 92.0777 313.379 96.177C326.268 98.2276 336.66 100.664 343.812 103.354C347.391 104.7 350.117 106.095 351.936 107.509C353.767 108.933 354.556 110.277 354.557 111.516C354.557 112.755 353.767 114.1 351.936 115.524C350.117 116.937 347.391 118.332 343.812 119.679C336.66 122.369 326.268 124.805 313.379 126.856C287.611 130.955 251.988 133.493 212.621 133.493C173.254 133.493 137.631 130.955 111.863 126.856C98.974 124.805 88.5836 122.369 81.4316 119.679C77.8518 118.332 75.1258 116.937 73.3076 115.524C71.4762 114.1 70.6855 112.755 70.6855 111.516C70.6857 110.277 71.4764 108.933 73.3076 107.509C75.1258 106.095 77.8518 104.7 81.4316 103.354C88.5836 100.664 98.9739 98.2276 111.863 96.177C137.631 92.0776 173.254 89.5383 212.621 89.5383Z" stroke="url(#paint7_linear_1_16853)" stroke-width="1.43455"/>
<path opacity="0.3" d="M212.621 72.5172C254.657 72.5172 292.689 76.9137 320.19 84.0084C333.946 87.5572 345.028 91.771 352.652 96.4215C360.319 101.098 364.283 106.082 364.283 111.111C364.283 116.139 360.319 121.124 352.652 125.8C345.028 130.451 333.946 134.665 320.19 138.214C292.689 145.308 254.657 149.704 212.621 149.704C170.585 149.704 132.553 145.308 105.052 138.214C91.2961 134.665 80.2155 130.451 72.5908 125.8C64.9242 121.124 60.959 116.139 60.959 111.111C60.959 106.082 64.9242 101.098 72.5908 96.4215C80.2155 91.7711 91.2961 87.5571 105.052 84.0084C132.553 76.9137 170.585 72.5172 212.621 72.5172Z" stroke="url(#paint8_linear_1_16853)" stroke-width="1.43455"/>
<path opacity="0.5" d="M212.461 42.812C239.443 42.812 263.856 44.4864 281.509 47.187C290.34 48.5381 297.448 50.1412 302.332 51.9077C304.778 52.7926 306.625 53.7039 307.846 54.6167C309.084 55.5423 309.545 56.3644 309.545 57.0571C309.545 57.7499 309.084 58.5728 307.846 59.4985C306.625 60.4113 304.778 61.3217 302.332 62.2065C297.448 63.9731 290.34 65.5771 281.509 66.9282C263.856 69.6288 239.443 71.3022 212.461 71.3022C185.479 71.3022 161.067 69.6288 143.414 66.9282C134.582 65.5771 127.474 63.9731 122.59 62.2065C120.144 61.3217 118.297 60.4113 117.076 59.4985C115.838 58.5728 115.377 57.7499 115.377 57.0571C115.377 56.3645 115.838 55.5422 117.076 54.6167C118.297 53.7039 120.143 52.7926 122.59 51.9077C127.474 50.1411 134.582 48.5382 143.414 47.187C161.067 44.4864 185.479 42.812 212.461 42.812Z" fill="url(#paint9_linear_1_16853)" stroke="url(#paint10_linear_1_16853)" stroke-width="1.43455"/>
<g clip-path="url(#clip1_1_16853)">
<g filter="url(#filter0_di_1_16853)">
<rect x="166.76" y="72.5898" width="87.8478" height="63.4161" rx="22.1823" fill="#F8F8F8" fill-opacity="0.05" shape-rendering="crispEdges"/>
</g>
<g filter="url(#filter1_f_1_16853)">
<rect x="127.903" y="20.219" width="97.9841" height="97.9841" rx="48.9921" fill="#F8F8F8" fill-opacity="0.1"/>
</g>
<g filter="url(#filter2_d_1_16853)">
<rect x="182.01" y="103.091" width="10.1363" height="16.8938" rx="5.06814" fill="url(#paint11_linear_1_16853)" shape-rendering="crispEdges"/>
</g>
<g filter="url(#filter3_d_1_16853)">
<rect x="205.182" y="103.091" width="10.1363" height="16.8938" rx="5.06814" fill="url(#paint12_linear_1_16853)" shape-rendering="crispEdges"/>
</g>
</g>
<g filter="url(#filter4_i_1_16853)">
<path d="M215.688 140.523H210.304H203.672C201.463 140.523 200.359 140.523 199.432 140.652C193.446 141.485 188.741 146.19 187.908 152.176C187.779 153.103 187.779 154.207 187.779 156.416C187.779 157.982 187.779 158.765 187.855 159.477C188.337 164.013 191.074 167.999 195.133 170.078C195.77 170.405 196.501 170.686 197.962 171.248L197.962 171.248L200.22 172.118C202.789 173.107 204.074 173.601 205.37 173.913C208.604 174.692 211.981 174.662 215.201 173.827C216.492 173.493 217.767 172.976 220.318 171.942L220.319 171.942L221.703 171.381C223.202 170.773 223.952 170.469 224.605 170.117C228.513 168.009 231.136 164.116 231.622 159.702C231.703 158.964 231.703 158.156 231.703 156.538C231.703 154.216 231.703 153.055 231.561 152.082C230.696 146.172 226.055 141.53 220.145 140.666C219.172 140.523 218.01 140.523 215.688 140.523Z" fill="url(#paint13_linear_1_16853)" fill-opacity="0.25"/>
</g>
<path d="M187.782 154.646L178.339 149.553C177.939 149.338 177.587 149.044 177.303 148.69L177.166 148.52C174.885 145.679 176.345 141.43 179.891 140.591C180.408 140.469 180.947 140.473 181.462 140.603L192.852 143.484C190.219 145.591 188.396 148.663 187.907 152.176C187.819 152.814 187.791 153.537 187.782 154.646Z" fill="url(#paint14_linear_1_16853)" fill-opacity="0.36"/>
<g filter="url(#filter5_i_1_16853)">
<path d="M203.926 162.31L220.219 158.197C224.106 157.216 226.25 153.046 224.787 149.314C223.243 145.377 218.605 143.676 214.882 145.682L200.181 153.601C199.714 153.853 199.314 154.214 199.015 154.654C196.967 157.668 198.762 161.787 202.364 162.34L202.579 162.374C203.028 162.442 203.486 162.421 203.926 162.31Z" fill="url(#paint15_linear_1_16853)" fill-opacity="0.35"/>
</g>
<circle cx="43.0498" cy="28.2336" r="1.04984" fill="#F8F8F8"/>
<circle opacity="0.2" cx="332.282" cy="158.939" r="1.57477" fill="#F8F8F8"/>
<circle cx="321.783" cy="13.0109" r="0.524922" fill="#F8F8F8"/>
<circle cx="106.566" cy="48.7055" r="0.524922" fill="#F8F8F8"/>
<circle cx="378.474" cy="67.6027" r="0.524922" fill="#F8F8F8"/>
<circle opacity="0.5" cx="84.5181" cy="153.69" r="1.57477" fill="#F8F8F8"/>
<circle opacity="0.5" cx="275.923" cy="87.8826" r="1.90763" fill="url(#paint16_linear_1_16853)"/>
<circle opacity="0.5" cx="260.175" cy="77.3841" r="1.90763" fill="url(#paint17_linear_1_16853)"/>
<circle opacity="0.5" cx="239.371" cy="91.2242" r="4.19938" fill="url(#paint18_linear_1_16853)"/>
<circle opacity="0.5" cx="78.7442" cy="97.5231" r="2.09969" fill="url(#paint19_linear_1_16853)"/>
<mask id="mask0_1_16853" style="mask-type:alpha" maskUnits="userSpaceOnUse" x="83" y="-9" width="256" height="256">
<circle cx="211" cy="119" r="127.347" fill="url(#paint20_radial_1_16853)"/>
</mask>
<g mask="url(#mask0_1_16853)">
<circle cx="211" cy="119" r="172.189" fill="url(#paint21_radial_1_16853)" fill-opacity="0.25" stroke="url(#paint22_linear_1_16853)" stroke-width="1.62188"/>
</g>
</g>
<defs>
<filter id="filter0_di_1_16853" x="153.245" y="72.5898" width="114.878" height="130.991" filterUnits="userSpaceOnUse" color-interpolation-filters="sRGB">
<feFlood flood-opacity="0" result="BackgroundImageFix"/>
<feColorMatrix in="SourceAlpha" type="matrix" values="0 0 0 0 0 0 0 0 0 0 0 0 0 0 0 0 0 0 127 0" result="hardAlpha"/>
<feMorphology radius="27.0301" operator="erode" in="SourceAlpha" result="effect1_dropShadow_1_16853"/>
<feOffset dy="54.0602"/>
<feGaussianBlur stdDeviation="20.2726"/>
<feComposite in2="hardAlpha" operator="out"/>
<feColorMatrix type="matrix" values="0 0 0 0 0 0 0 0 0 0 0 0 0 0 0 0 0 0 0.4 0"/>
<feBlend mode="multiply" in2="BackgroundImageFix" result="effect1_dropShadow_1_16853"/>
<feBlend mode="normal" in="SourceGraphic" in2="effect1_dropShadow_1_16853" result="shape"/>
<feColorMatrix in="SourceAlpha" type="matrix" values="0 0 0 0 0 0 0 0 0 0 0 0 0 0 0 0 0 0 127 0" result="hardAlpha"/>
<feOffset/>
<feGaussianBlur stdDeviation="6.75753"/>
<feComposite in2="hardAlpha" operator="arithmetic" k2="-1" k3="1"/>
<feColorMatrix type="matrix" values="0 0 0 0 0.972549 0 0 0 0 0.972549 0 0 0 0 0.972549 0 0 0 0.5 0"/>
<feBlend mode="normal" in2="shape" result="effect2_innerShadow_1_16853"/>
</filter>
<filter id="filter1_f_1_16853" x="73.8424" y="-33.8412" width="206.105" height="206.105" filterUnits="userSpaceOnUse" color-interpolation-filters="sRGB">
<feFlood flood-opacity="0" result="BackgroundImageFix"/>
<feBlend mode="normal" in="SourceGraphic" in2="BackgroundImageFix" result="shape"/>
<feGaussianBlur stdDeviation="27.0301" result="effect1_foregroundBlur_1_16853"/>
</filter>
<filter id="filter2_d_1_16853" x="176.464" y="101.704" width="18.4546" height="25.2122" filterUnits="userSpaceOnUse" color-interpolation-filters="sRGB">
<feFlood flood-opacity="0" result="BackgroundImageFix"/>
<feColorMatrix in="SourceAlpha" type="matrix" values="0 0 0 0 0 0 0 0 0 0 0 0 0 0 0 0 0 0 127 0" result="hardAlpha"/>
<feOffset dx="-1.38639" dy="2.77279"/>
<feGaussianBlur stdDeviation="2.07959"/>
<feComposite in2="hardAlpha" operator="out"/>
<feColorMatrix type="matrix" values="0 0 0 0 0 0 0 0 0 0 0 0 0 0 0 0 0 0 0.1 0"/>
<feBlend mode="normal" in2="BackgroundImageFix" result="effect1_dropShadow_1_16853"/>
<feBlend mode="normal" in="SourceGraphic" in2="effect1_dropShadow_1_16853" result="shape"/>
</filter>
<filter id="filter3_d_1_16853" x="199.636" y="101.704" width="18.4546" height="25.2122" filterUnits="userSpaceOnUse" color-interpolation-filters="sRGB">
<feFlood flood-opacity="0" result="BackgroundImageFix"/>
<feColorMatrix in="SourceAlpha" type="matrix" values="0 0 0 0 0 0 0 0 0 0 0 0 0 0 0 0 0 0 127 0" result="hardAlpha"/>
<feOffset dx="-1.38639" dy="2.77279"/>
<feGaussianBlur stdDeviation="2.07959"/>
<feComposite in2="hardAlpha" operator="out"/>
<feColorMatrix type="matrix" values="0 0 0 0 0 0 0 0 0 0 0 0 0 0 0 0 0 0 0.1 0"/>
<feBlend mode="normal" in2="BackgroundImageFix" result="effect1_dropShadow_1_16853"/>
<feBlend mode="normal" in="SourceGraphic" in2="effect1_dropShadow_1_16853" result="shape"/>
</filter>
<filter id="filter4_i_1_16853" x="187.779" y="140.523" width="43.9238" height="33.9529" filterUnits="userSpaceOnUse" color-interpolation-filters="sRGB">
<feFlood flood-opacity="0" result="BackgroundImageFix"/>
<feBlend mode="normal" in="SourceGraphic" in2="BackgroundImageFix" result="shape"/>
<feColorMatrix in="SourceAlpha" type="matrix" values="0 0 0 0 0 0 0 0 0 0 0 0 0 0 0 0 0 0 127 0" result="hardAlpha"/>
<feOffset/>
<feGaussianBlur stdDeviation="2.42619"/>
<feComposite in2="hardAlpha" operator="arithmetic" k2="-1" k3="1"/>
<feColorMatrix type="matrix" values="0 0 0 0 0.972549 0 0 0 0 0.972549 0 0 0 0 0.972549 0 0 0 0.25 0"/>
<feBlend mode="normal" in2="shape" result="effect1_innerShadow_1_16853"/>
</filter>
<filter id="filter5_i_1_16853" x="198.153" y="144.836" width="27.0957" height="17.5768" filterUnits="userSpaceOnUse" color-interpolation-filters="sRGB">
<feFlood flood-opacity="0" result="BackgroundImageFix"/>
<feBlend mode="normal" in="SourceGraphic" in2="BackgroundImageFix" result="shape"/>
<feColorMatrix in="SourceAlpha" type="matrix" values="0 0 0 0 0 0 0 0 0 0 0 0 0 0 0 0 0 0 127 0" result="hardAlpha"/>
<feOffset/>
<feGaussianBlur stdDeviation="2.42619"/>
<feComposite in2="hardAlpha" operator="arithmetic" k2="-1" k3="1"/>
<feColorMatrix type="matrix" values="0 0 0 0 0.972549 0 0 0 0 0.972549 0 0 0 0 0.972549 0 0 0 0.3 0"/>
<feBlend mode="normal" in2="shape" result="effect1_innerShadow_1_16853"/>
</filter>
<linearGradient id="paint0_linear_1_16853" x1="212.682" y1="2.09485" x2="212.682" y2="235.649" gradientUnits="userSpaceOnUse">
<stop stop-color="#F8F8F8" stop-opacity="0.1"/>
<stop offset="0.275" stop-color="#F8F8F8" stop-opacity="0"/>
<stop offset="1" stop-color="#F8F8F8" stop-opacity="0"/>
</linearGradient>
<linearGradient id="paint1_linear_1_16853" x1="212.682" y1="2.09485" x2="212.682" y2="235.649" gradientUnits="userSpaceOnUse">
<stop stop-color="#F8F8F8" stop-opacity="0.1"/>
<stop offset="0.504592" stop-color="#F8F8F8" stop-opacity="0"/>
</linearGradient>
<linearGradient id="paint2_linear_1_16853" x1="212.682" y1="2.09485" x2="212.682" y2="235.649" gradientUnits="userSpaceOnUse">
<stop stop-color="#F8F8F8"/>
<stop offset="0.138686" stop-color="white" stop-opacity="0"/>
<stop offset="0.782661" stop-color="#F8F8F8" stop-opacity="0.05"/>
<stop offset="1" stop-color="#F8F8F8" stop-opacity="0.5"/>
</linearGradient>
<linearGradient id="paint3_linear_1_16853" x1="212.215" y1="2.09485" x2="212.215" y2="472.041" gradientUnits="userSpaceOnUse">
<stop stop-color="#121212" stop-opacity="0.4"/>
<stop offset="0.53327" stop-color="#121212" stop-opacity="0"/>
</linearGradient>
<linearGradient id="paint4_linear_1_16853" x1="212.215" y1="2.09485" x2="212.215" y2="343.329" gradientUnits="userSpaceOnUse">
<stop stop-color="#F8F8F8" stop-opacity="0"/>
<stop offset="1" stop-color="#F8F8F8" stop-opacity="0.05"/>
</linearGradient>
<linearGradient id="paint5_linear_1_16853" x1="212.215" y1="160.958" x2="212.215" y2="197.432" gradientUnits="userSpaceOnUse">
<stop offset="0.502405" stop-color="#F8F8F8" stop-opacity="0"/>
<stop offset="1" stop-color="#F8F8F8" stop-opacity="0.1"/>
</linearGradient>
<linearGradient id="paint6_linear_1_16853" x1="212.215" y1="160.958" x2="212.215" y2="197.432" gradientUnits="userSpaceOnUse">
<stop stop-color="#F8F8F8" stop-opacity="0"/>
<stop offset="1" stop-color="#F8F8F8" stop-opacity="0.1"/>
</linearGradient>
<linearGradient id="paint7_linear_1_16853" x1="304.616" y1="108.316" x2="311.773" y2="124.37" gradientUnits="userSpaceOnUse">
<stop stop-color="#F8F8F8" stop-opacity="0"/>
<stop offset="1" stop-color="#F8F8F8"/>
</linearGradient>
<linearGradient id="paint8_linear_1_16853" x1="105.632" y1="97.332" x2="55.379" y2="130.969" gradientUnits="userSpaceOnUse">
<stop stop-color="#F8F8F8" stop-opacity="0"/>
<stop offset="1" stop-color="#F8F8F8"/>
</linearGradient>
<linearGradient id="paint9_linear_1_16853" x1="212.461" y1="42.0952" x2="212.461" y2="72.0194" gradientUnits="userSpaceOnUse">
<stop offset="0.502405" stop-color="#F8F8F8" stop-opacity="0"/>
<stop offset="1" stop-color="#F8F8F8" stop-opacity="0.1"/>
</linearGradient>
<linearGradient id="paint10_linear_1_16853" x1="212.461" y1="42.0952" x2="212.461" y2="72.0194" gradientUnits="userSpaceOnUse">
<stop stop-color="#F8F8F8" stop-opacity="0"/>
<stop offset="1" stop-color="#F8F8F8" stop-opacity="0.1"/>
</linearGradient>
<linearGradient id="paint11_linear_1_16853" x1="187.078" y1="103.091" x2="187.078" y2="119.984" gradientUnits="userSpaceOnUse">
<stop stop-color="#F8F8F8" stop-opacity="0.9"/>
<stop offset="1" stop-color="#F8F8F8" stop-opacity="0.3"/>
</linearGradient>
<linearGradient id="paint12_linear_1_16853" x1="210.25" y1="103.091" x2="210.25" y2="119.984" gradientUnits="userSpaceOnUse">
<stop stop-color="#F8F8F8" stop-opacity="0.9"/>
<stop offset="1" stop-color="#F8F8F8" stop-opacity="0.3"/>
</linearGradient>
<linearGradient id="paint13_linear_1_16853" x1="229.09" y1="168.39" x2="223.063" y2="145.528" gradientUnits="userSpaceOnUse">
<stop stop-color="#F8F8F8" stop-opacity="0.59"/>
<stop offset="1" stop-color="#F8F8F8"/>
</linearGradient>
<linearGradient id="paint14_linear_1_16853" x1="177.069" y1="151.612" x2="179.562" y2="142.55" gradientUnits="userSpaceOnUse">
<stop stop-color="#F8F8F8" stop-opacity="0.59"/>
<stop offset="1" stop-color="#F8F8F8"/>
</linearGradient>
<linearGradient id="paint15_linear_1_16853" x1="203.499" y1="164.785" x2="213.897" y2="149.535" gradientUnits="userSpaceOnUse">
<stop stop-color="#F8F8F8" stop-opacity="0.1"/>
<stop offset="1" stop-color="#F8F8F8" stop-opacity="0.5"/>
</linearGradient>
<linearGradient id="paint16_linear_1_16853" x1="277.195" y1="85.975" x2="274.016" y2="90.4261" gradientUnits="userSpaceOnUse">
<stop stop-color="white" stop-opacity="0.3"/>
<stop offset="0.826694" stop-color="white" stop-opacity="0"/>
</linearGradient>
<linearGradient id="paint17_linear_1_16853" x1="261.447" y1="75.4764" x2="258.268" y2="79.9276" gradientUnits="userSpaceOnUse">
<stop stop-color="white" stop-opacity="0.3"/>
<stop offset="0.826694" stop-color="white" stop-opacity="0"/>
</linearGradient>
<linearGradient id="paint18_linear_1_16853" x1="242.171" y1="87.0248" x2="235.172" y2="96.8233" gradientUnits="userSpaceOnUse">
<stop stop-color="white" stop-opacity="0.3"/>
<stop offset="0.826694" stop-color="white" stop-opacity="0"/>
</linearGradient>
<linearGradient id="paint19_linear_1_16853" x1="80.144" y1="95.4235" x2="76.6445" y2="100.323" gradientUnits="userSpaceOnUse">
<stop stop-color="white" stop-opacity="0.3"/>
<stop offset="0.826694" stop-color="white" stop-opacity="0"/>
</linearGradient>
<radialGradient id="paint20_radial_1_16853" cx="0" cy="0" r="1" gradientUnits="userSpaceOnUse" gradientTransform="translate(211 119) rotate(90.9687) scale(327.511)">
<stop stop-color="white"/>
<stop offset="0.362052" stop-color="#F8F8F8" stop-opacity="0"/>
</radialGradient>
<radialGradient id="paint21_radial_1_16853" cx="0" cy="0" r="1" gradientUnits="userSpaceOnUse" gradientTransform="translate(211 131.357) rotate(90) scale(513.639)">
<stop stop-color="#F8F8F8" stop-opacity="0.4"/>
<stop offset="1" stop-color="#F8F8F8" stop-opacity="0"/>
</radialGradient>
<linearGradient id="paint22_linear_1_16853" x1="211" y1="-54" x2="211" y2="453.551" gradientUnits="userSpaceOnUse">
<stop stop-color="#F8F8F8" stop-opacity="0"/>
<stop offset="1" stop-color="#F8F8F8" stop-opacity="0.05"/>
</linearGradient>
<clipPath id="clip0_1_16853">
<rect width="423" height="239" rx="8" fill="white"/>
</clipPath>
<clipPath id="clip1_1_16853">
<rect x="166.76" y="72.5898" width="87.8478" height="63.1021" rx="22.1823" fill="white"/>
</clipPath>
</defs>
</svg>
